<svg xmlns="http://www.w3.org/2000/svg" xmlns:xlink="http://www.w3.org/1999/xlink" contentStyleType="text/css" data-diagram-type="CLASS" height="306px" preserveAspectRatio="none" style="width:404px;height:306px;background:#FFFFFF;" version="1.1" viewBox="0 0 404 306" width="404px" zoomAndPan="magnify"><defs/><g><!--cluster it.unimi.di.prog2.s06--><g class="cluster" data-entity="it.unimi.di.prog2.s06" data-source-line="10" data-uid="ent0002" id="cluster_it.unimi.di.prog2.s06"><path d="M16.5,4 L161.3495,4 A3.75,3.75 0 0 1 163.8495,6.5 L170.8495,29.0679 L394.5,29.0679 A2.5,2.5 0 0 1 397,31.5679 L397,266.5 A2.5,2.5 0 0 1 394.5,269 L16.5,269 A2.5,2.5 0 0 1 14,266.5 L14,6.5 A2.5,2.5 0 0 1 16.5,4" fill="none" style="stroke:#000000;stroke-width:1.5;"/><line style="stroke:#000000;stroke-width:1.5;" x1="14" x2="170.8495" y1="29.0679" y2="29.0679"/><text fill="#000000" font-family="sans-serif" font-size="14" font-weight="bold" lengthAdjust="spacing" textLength="143.8495" x="18" y="20.9659">it.unimi.di.prog2.s06</text></g><!--class ArrayUtilsClient--><g class="entity" data-entity="ArrayUtilsClient" data-source-line="12" data-uid="ent0003" id="entity_ArrayUtilsClient"><a href="ArrayUtilsClient.html" target="_top" title="ArrayUtilsClient.html" xlink:actuate="onRequest" xlink:href="ArrayUtilsClient.html" xlink:show="new" xlink:title="ArrayUtilsClient.html" xlink:type="simple"><rect fill="#F1F1F1" height="67.0679" rx="2.5" ry="2.5" style="stroke:#181818;stroke-width:0.5;" width="151.4115" x="22.5" y="62.5"/><ellipse cx="45.1572" cy="78.5" fill="#ADD1B2" rx="11" ry="11" style="stroke:#181818;stroke-width:1;"/><path d="M48.1259,84.1406 Q47.5478,84.4375 46.9072,84.5781 Q46.2665,84.7344 45.5634,84.7344 Q43.0634,84.7344 41.7353,83.0938 Q40.4228,81.4375 40.4228,78.3125 Q40.4228,75.1875 41.7353,73.5313 Q43.0634,71.875 45.5634,71.875 Q46.2665,71.875 46.9072,72.0313 Q47.5634,72.1875 48.1259,72.4844 L48.1259,75.2031 Q47.5009,74.625 46.9072,74.3594 Q46.3134,74.0781 45.6884,74.0781 Q44.3447,74.0781 43.6572,75.1563 Q42.9697,76.2188 42.9697,78.3125 Q42.9697,80.4063 43.6572,81.4844 Q44.3447,82.5469 45.6884,82.5469 Q46.3134,82.5469 46.9072,82.2813 Q47.5009,82 48.1259,81.4219 L48.1259,84.1406 Z " fill="#000000"/><text fill="#000000" font-family="sans-serif" font-size="14" lengthAdjust="spacing" textLength="102.3956" x="60.8588" y="83.932">ArrayUtilsClient</text><line style="stroke:#181818;stroke-width:0.5;" x1="23.5" x2="172.9115" y1="94.5" y2="94.5"/><line style="stroke:#181818;stroke-width:0.5;" x1="23.5" x2="172.9115" y1="102.5" y2="102.5"/><ellipse cx="33.5" cy="117.534" fill="#84BE84" rx="3" ry="3" style="stroke:#038048;stroke-width:1;"/><text fill="#000000" font-family="sans-serif" font-size="14" lengthAdjust="spacing" text-decoration="underline" textLength="125.4115" x="42.5" y="121.4659">main(String[]): void</text></a></g><!--class ArrayUtils--><g class="entity" data-entity="ArrayUtils" data-source-line="16" data-uid="ent0004" id="entity_ArrayUtils"><a href="ArrayUtils.html" target="_top" title="ArrayUtils.html" xlink:actuate="onRequest" xlink:href="ArrayUtils.html" xlink:show="new" xlink:title="ArrayUtils.html" xlink:type="simple"><rect fill="#F1F1F1" height="124.2717" rx="2.5" ry="2.5" style="stroke:#181818;stroke-width:0.5;" width="197.2473" x="191.5" y="34"/><ellipse cx="253.5128" cy="50" fill="#ADD1B2" rx="11" ry="11" style="stroke:#181818;stroke-width:1;"/><path d="M256.4815,55.6406 Q255.9034,55.9375 255.2628,56.0781 Q254.6222,56.2344 253.919,56.2344 Q251.419,56.2344 250.0909,54.5938 Q248.7784,52.9375 248.7784,49.8125 Q248.7784,46.6875 250.0909,45.0313 Q251.419,43.375 253.919,43.375 Q254.6222,43.375 255.2628,43.5313 Q255.919,43.6875 256.4815,43.9844 L256.4815,46.7031 Q255.8565,46.125 255.2628,45.8594 Q254.669,45.5781 254.044,45.5781 Q252.7003,45.5781 252.0128,46.6563 Q251.3253,47.7188 251.3253,49.8125 Q251.3253,51.9063 252.0128,52.9844 Q252.7003,54.0469 254.044,54.0469 Q254.669,54.0469 255.2628,53.7813 Q255.8565,53.5 256.4815,52.9219 L256.4815,55.6406 Z " fill="#000000"/><text fill="#000000" font-family="sans-serif" font-size="14" lengthAdjust="spacing" textLength="64.7218" x="274.0128" y="55.432">ArrayUtils</text><line style="stroke:#181818;stroke-width:0.5;" x1="192.5" x2="387.7473" y1="66" y2="66"/><line style="stroke:#181818;stroke-width:0.5;" x1="192.5" x2="387.7473" y1="74" y2="74"/><polygon fill="#4177AF" points="202.5,85.034,198.5,91.034,206.5,91.034" style="stroke:#1963A0;stroke-width:1;"/><text fill="#000000" font-family="sans-serif" font-size="14" lengthAdjust="spacing" text-decoration="underline" textLength="170.5893" x="211.5" y="92.9659">binarySearch(int[], int): int</text><polygon fill="#4177AF" points="202.5,104.1019,198.5,110.1019,206.5,110.1019" style="stroke:#1963A0;stroke-width:1;"/><text fill="#000000" font-family="sans-serif" font-size="14" lengthAdjust="spacing" text-decoration="underline" textLength="171.2473" x="211.5" y="112.0339">insertAt(int[], int, int): void</text><polygon fill="#4177AF" points="202.5,123.1698,198.5,129.1698,206.5,129.1698" style="stroke:#1963A0;stroke-width:1;"/><text fill="#000000" font-family="sans-serif" font-size="14" lengthAdjust="spacing" text-decoration="underline" textLength="110.4876" x="211.5" y="131.1018">fill(int[], int): void</text><polygon fill="#4177AF" points="202.5,142.2377,198.5,148.2377,206.5,148.2377" style="stroke:#1963A0;stroke-width:1;"/><text fill="#000000" font-family="sans-serif" font-size="14" lengthAdjust="spacing" text-decoration="underline" textLength="101.8356" x="211.5" y="150.1697">print(int[]): void</text></a></g><!--class MathFunctions--><g class="entity" data-entity="MathFunctions" data-source-line="23" data-uid="ent0005" id="entity_MathFunctions"><a href="MathFunctions.html" target="_top" title="MathFunctions.html" xlink:actuate="onRequest" xlink:href="MathFunctions.html" xlink:show="new" xlink:title="MathFunctions.html" xlink:type="simple"><rect fill="#F1F1F1" height="67.0679" rx="2.5" ry="2.5" style="stroke:#181818;stroke-width:0.5;" width="159.6435" x="22" y="194"/><ellipse cx="50.3208" cy="210" fill="#ADD1B2" rx="11" ry="11" style="stroke:#181818;stroke-width:1;"/><path d="M53.2896,215.6406 Q52.7115,215.9375 52.0708,216.0781 Q51.4302,216.2344 50.7271,216.2344 Q48.2271,216.2344 46.899,214.5938 Q45.5865,212.9375 45.5865,209.8125 Q45.5865,206.6875 46.899,205.0313 Q48.2271,203.375 50.7271,203.375 Q51.4302,203.375 52.0708,203.5313 Q52.7271,203.6875 53.2896,203.9844 L53.2896,206.7031 Q52.6646,206.125 52.0708,205.8594 Q51.4771,205.5781 50.8521,205.5781 Q49.5083,205.5781 48.8208,206.6563 Q48.1333,207.7188 48.1333,209.8125 Q48.1333,211.9063 48.8208,212.9844 Q49.5083,214.0469 50.8521,214.0469 Q51.4771,214.0469 52.0708,213.7813 Q52.6646,213.5 53.2896,212.9219 L53.2896,215.6406 Z " fill="#000000"/><text fill="#000000" font-family="sans-serif" font-size="14" lengthAdjust="spacing" textLength="98.0416" x="67.281" y="215.432">MathFunctions</text><line style="stroke:#181818;stroke-width:0.5;" x1="23" x2="180.6435" y1="226" y2="226"/><line style="stroke:#181818;stroke-width:0.5;" x1="23" x2="180.6435" y1="234" y2="234"/><ellipse cx="33" cy="249.034" fill="#84BE84" rx="3" ry="3" style="stroke:#038048;stroke-width:1;"/><text fill="#000000" font-family="sans-serif" font-size="14" lengthAdjust="spacing" text-decoration="underline" textLength="133.6435" x="42" y="252.9659">sqrt(double): double</text></a></g><!--class MathFunctionsClient--><g class="entity" data-entity="MathFunctionsClient" data-source-line="27" data-uid="ent0006" id="entity_MathFunctionsClient"><a href="MathFunctionsClient.html" target="_top" title="MathFunctionsClient.html" xlink:actuate="onRequest" xlink:href="MathFunctionsClient.html" xlink:show="new" xlink:title="MathFunctionsClient.html" xlink:type="simple"><rect fill="#F1F1F1" height="67.0679" rx="2.5" ry="2.5" style="stroke:#181818;stroke-width:0.5;" width="167.7155" x="200" y="194"/><ellipse cx="215" cy="210" fill="#ADD1B2" rx="11" ry="11" style="stroke:#181818;stroke-width:1;"/><path d="M217.9688,215.6406 Q217.3906,215.9375 216.75,216.0781 Q216.1094,216.2344 215.4063,216.2344 Q212.9063,216.2344 211.5781,214.5938 Q210.2656,212.9375 210.2656,209.8125 Q210.2656,206.6875 211.5781,205.0313 Q212.9063,203.375 215.4063,203.375 Q216.1094,203.375 216.75,203.5313 Q217.4063,203.6875 217.9688,203.9844 L217.9688,206.7031 Q217.3438,206.125 216.75,205.8594 Q216.1563,205.5781 215.5313,205.5781 Q214.1875,205.5781 213.5,206.6563 Q212.8125,207.7188 212.8125,209.8125 Q212.8125,211.9063 213.5,212.9844 Q214.1875,214.0469 215.5313,214.0469 Q216.1563,214.0469 216.75,213.7813 Q217.3438,213.5 217.9688,212.9219 L217.9688,215.6406 Z " fill="#000000"/><text fill="#000000" font-family="sans-serif" font-size="14" lengthAdjust="spacing" textLength="135.7155" x="229" y="215.432">MathFunctionsClient</text><line style="stroke:#181818;stroke-width:0.5;" x1="201" x2="366.7155" y1="226" y2="226"/><line style="stroke:#181818;stroke-width:0.5;" x1="201" x2="366.7155" y1="234" y2="234"/><ellipse cx="211" cy="249.034" fill="#84BE84" rx="3" ry="3" style="stroke:#038048;stroke-width:1;"/><text fill="#000000" font-family="sans-serif" font-size="14" lengthAdjust="spacing" text-decoration="underline" textLength="125.4115" x="220" y="252.9659">main(String[]): void</text></a></g><g class="footer" data-source-line="39"><text fill="#888888" font-family="sans-serif" font-size="10" lengthAdjust="spacing" textLength="2.6" x="192.7" y="281.69">&#160;</text><a href="https://github.com/talsma-ict/umldoclet" target="_top" title="https://github.com/talsma-ict/umldoclet" xlink:actuate="onRequest" xlink:href="https://github.com/talsma-ict/umldoclet" xlink:show="new" xlink:title="https://github.com/talsma-ict/umldoclet" xlink:type="simple"><text fill="#888888" font-family="sans-serif" font-size="10" lengthAdjust="spacing" textLength="76.7199" x="155.64" y="295.31">UMLDoclet 2.2.3</text></a></g><!--SRC=[hLJBRjim4BpdAxReeGuIqvBIF2eK1GptaHOEKCJEITLXJJ4I4OfKo9KB8KY_lPJik5AGD3sK1r4YTsTckHm10Bo1cQaQA_E2W0nG8HrSNSm1TGQvqC8YYGnaYRbmi1BAwDnj0WLWJOMnOAwxBswi5QuoEfCwXs-uHd2cjbmujhS77TNo0VqdkXxwgcaNFngk1C5ejj-J50NXoJWAecDOed8bmjVPactH_kH4B697uB6Lv48x3rdhJDXErhH2xgVvPkSGri8wQRJF2ROuRQdSQ4Af7LHeoRKbVLUegTKQifQVdS9ekfWFjGNlEcs7CBKQwmmkpMszA_TLPJ7tYXKsfYPmfI3Ks6qvhza9JuNapo-EDmbUw8q_Pf34QYrBoJB9AcloYBdW1EusGUtW2ftpd1QRAvBApPGKcY197Y-nWagLfZuNUkFE4PBazt1G-f972xA-OKcw7yFQo6mNUlyyuO3g1P9VAwdHDWk1bXSZgIb93y5Fdiu_dydndH2MfjIBVqWQQ1ncNKkbXWn_2QvyrLly5ok_G2e-rvgJlpXjyOFlbmxPtLeQPQPUAU69DY__IBLhx1Eh_wEts-czeqQ93xlTQsF8ksU8VDvKmiwblfaPvI_jwxEdTwzQuocfXVSwlz72bnJqQ3kwIOzlo_L39qb1LBbuCiab5VMASLDEg3FzM7AQrANADcv_vFiqtVhuo-w7qffo70RZw7GPHd5m58TdB0gFJevFW-Et1q4O1q7ogRQc4fDBKuhqDm00]--></g></svg>