<svg xmlns="http://www.w3.org/2000/svg" xmlns:xlink="http://www.w3.org/1999/xlink" contentStyleType="text/css" data-diagram-type="CLASS" height="309px" preserveAspectRatio="none" style="width:218px;height:309px;background:#FFFFFF;" version="1.1" viewBox="0 0 218 309" width="218px" zoomAndPan="magnify"><defs/><g><!--class it.unimi.di.prog2.h10.DensePoly--><g class="entity" data-entity="it.unimi.di.prog2.h10.DensePoly" data-source-line="13" data-uid="ent0002" id="entity_it.unimi.di.prog2.h10.DensePoly"><a href="DensePoly.html" target="_top" title="DensePoly.html" xlink:actuate="onRequest" xlink:href="DensePoly.html" xlink:show="new" xlink:title="DensePoly.html" xlink:type="simple"><rect fill="#F1F1F1" height="268.435" rx="2.5" ry="2.5" style="stroke:#181818;stroke-width:0.5;" width="205.2693" x="6" y="12"/><ellipse cx="55.2197" cy="33.344" fill="#ADD1B2" rx="11" ry="11" style="stroke:#181818;stroke-width:1;"/><path d="M58.1884,38.9846 Q57.6103,39.2815 56.9697,39.4221 Q56.3291,39.5783 55.6259,39.5783 Q53.1259,39.5783 51.7978,37.9377 Q50.4853,36.2815 50.4853,33.1565 Q50.4853,30.0315 51.7978,28.3752 Q53.1259,26.719 55.6259,26.719 Q56.3291,26.719 56.9697,26.8752 Q57.6259,27.0315 58.1884,27.3283 L58.1884,30.0471 Q57.5634,29.469 56.9697,29.2033 Q56.3759,28.9221 55.7509,28.9221 Q54.4072,28.9221 53.7197,30.0002 Q53.0322,31.0627 53.0322,33.1565 Q53.0322,35.2502 53.7197,36.3283 Q54.4072,37.3908 55.7509,37.3908 Q56.3759,37.3908 56.9697,37.1252 Q57.5634,36.844 58.1884,36.2658 L58.1884,38.9846 Z " fill="#000000"/><text fill="#000000" font-family="sans-serif" font-size="14" lengthAdjust="spacing" textLength="69.0617" x="90.3538" y="31.9659">DensePoly</text><text fill="#000000" font-family="sans-serif" font-size="10" lengthAdjust="spacing" textLength="98.3299" x="75.7197" y="46.7579">it.unimi.di.prog2.h10</text><line style="stroke:#181818;stroke-width:0.5;" x1="7" x2="210.2693" y1="54.6879" y2="54.6879"/><rect fill="none" height="6" style="stroke:#C82930;stroke-width:1;" width="6" x="14" y="66.7219"/><text fill="#000000" font-family="sans-serif" font-size="14" lengthAdjust="spacing" textLength="102.1856" x="26" y="73.6538">coefficient: int[]</text><line style="stroke:#181818;stroke-width:0.5;" x1="7" x2="210.2693" y1="81.7558" y2="81.7558"/><ellipse cx="17" cy="96.7898" fill="#84BE84" rx="3" ry="3" style="stroke:#038048;stroke-width:1;"/><text fill="#000000" font-family="sans-serif" font-size="14" lengthAdjust="spacing" textLength="77.4617" x="26" y="100.7218">DensePoly()</text><ellipse cx="17" cy="115.8577" fill="#84BE84" rx="3" ry="3" style="stroke:#038048;stroke-width:1;"/><text fill="#000000" font-family="sans-serif" font-size="14" lengthAdjust="spacing" textLength="119.4895" x="26" y="119.7897">DensePoly(int, int)</text><ellipse cx="17" cy="134.9256" fill="#84BE84" rx="3" ry="3" style="stroke:#038048;stroke-width:1;"/><text fill="#000000" font-family="sans-serif" font-size="14" lengthAdjust="spacing" textLength="103.9916" x="26" y="138.8576">DensePoly(int[])</text><ellipse cx="17" cy="153.9935" fill="#84BE84" rx="3" ry="3" style="stroke:#038048;stroke-width:1;"/><text fill="#000000" font-family="sans-serif" font-size="14" lengthAdjust="spacing" textLength="79.7997" x="26" y="157.9255">degree(): int</text><ellipse cx="17" cy="173.0614" fill="#84BE84" rx="3" ry="3" style="stroke:#038048;stroke-width:1;"/><text fill="#000000" font-family="sans-serif" font-size="14" lengthAdjust="spacing" textLength="83.1457" x="26" y="176.9934">coeff(int): int</text><ellipse cx="17" cy="192.1294" fill="#84BE84" rx="3" ry="3" style="stroke:#038048;stroke-width:1;"/><text fill="#000000" font-family="sans-serif" font-size="14" lengthAdjust="spacing" textLength="109.8296" x="26" y="196.0613">isZero(): boolean</text><ellipse cx="17" cy="211.1973" fill="#84BE84" rx="3" ry="3" style="stroke:#038048;stroke-width:1;"/><text fill="#000000" font-family="sans-serif" font-size="14" lengthAdjust="spacing" textLength="178.9893" x="26" y="215.1293">add(DensePoly): DensePoly</text><ellipse cx="17" cy="230.2652" fill="#84BE84" rx="3" ry="3" style="stroke:#038048;stroke-width:1;"/><text fill="#000000" font-family="sans-serif" font-size="14" lengthAdjust="spacing" textLength="179.2693" x="26" y="234.1972">mul(DensePoly): DensePoly</text><ellipse cx="17" cy="249.3331" fill="#84BE84" rx="3" ry="3" style="stroke:#038048;stroke-width:1;"/><text fill="#000000" font-family="sans-serif" font-size="14" lengthAdjust="spacing" textLength="177.8833" x="26" y="253.2651">sub(DensePoly): DensePoly</text><ellipse cx="17" cy="268.401" fill="#84BE84" rx="3" ry="3" style="stroke:#038048;stroke-width:1;"/><text fill="#000000" font-family="sans-serif" font-size="14" lengthAdjust="spacing" textLength="125.5655" x="26" y="272.333">minus(): DensePoly</text></a></g><g class="footer" data-source-line="33"><text fill="#888888" font-family="sans-serif" font-size="10" lengthAdjust="spacing" textLength="2.6" x="103.7" y="284.69">&#160;</text><a href="https://github.com/talsma-ict/umldoclet" target="_top" title="https://github.com/talsma-ict/umldoclet" xlink:actuate="onRequest" xlink:href="https://github.com/talsma-ict/umldoclet" xlink:show="new" xlink:title="https://github.com/talsma-ict/umldoclet" xlink:type="simple"><text fill="#888888" font-family="sans-serif" font-size="10" lengthAdjust="spacing" textLength="76.7199" x="66.64" y="298.31">UMLDoclet 2.2.3</text></a></g><!--SRC=[XLFVJzim47xdhxYnXnL1NIVyhX0IAjFOr4a8oij27jpacbWulinscBA9_trssgLTnuHVujpttVVTsJu0W0ymeReriYWTE09NIWiFNwSWT0u5QZJ2OGwo4WLQcACYNTWb4K4qhYG3jEZ-CZ86RKqwbxg0B-9PWAN6P6ZPpWvqLhC_wZ-4tL2Vjo5uJPb21uF9taP9COzEXZ6FZs4cbAq4V9xCs4fjdHEpc1s2rrOoGsszPADpD5rPLxN8_6UwH0xW6OsLf7qEN-c4LZFIJaXjeHR6sT3IhHBQXLeZ5lpPAGokxgT_ryRFkzeEuCfeqUHmHz-RljrtjH65hrY9bXe7ja8dj5XYrXUjHUMFIsHuZzvKE7-IcZHsU2bp1Angry92eihjTjIBbUJ3NJnJmbhOlR3o9uwZeylhqEajgVPHhsByKZhMQ5b9bajM6ofYLaPy5_mzl8gmNWEIfD-pqbKgJU5NPnlMC2DSB6GcKRinIEsIjCVs-xp1tcj1ppu8AVy3atG3oR4mY8EzpcGTxkm3UHkGzXiQ2lmvaKAXrv38yq5lv0dzVasf6lKMnJRpDrMaRkpW7-nbUMiNrhKABtlwWiZvDxi-sx1ksXhDLEgd2Id_GDwVlOu-XEUkf4O_OTcJHlySUCzyMTgDDlnMNeywIKhdQZiUZGhfocRECgf6hXkreSpSgAbKlfonhMbBqzNqVEh7E8p2CEB3-7GMnMD-E8xEsD5vTCgF-Vd9Fe_6d2SV6qCrZkwemlGt]--></g></svg>