<svg xmlns="http://www.w3.org/2000/svg" xmlns:xlink="http://www.w3.org/1999/xlink" contentStyleType="text/css" data-diagram-type="CLASS" height="679px" preserveAspectRatio="none" style="width:953px;height:679px;background:#FFFFFF;" version="1.1" viewBox="0 0 953 679" width="953px" zoomAndPan="magnify"><defs/><g><!--cluster it.unimi.di.prog2.h10--><g class="cluster" data-entity="it.unimi.di.prog2.h10" data-source-line="10" data-uid="ent0002" id="cluster_it.unimi.di.prog2.h10"><path d="M16.5,4 L163.5895,4 A3.75,3.75 0 0 1 166.0895,6.5 L173.0895,29.0679 L843.5,29.0679 A2.5,2.5 0 0 1 846,31.5679 L846,639.5 A2.5,2.5 0 0 1 843.5,642 L16.5,642 A2.5,2.5 0 0 1 14,639.5 L14,6.5 A2.5,2.5 0 0 1 16.5,4" fill="none" style="stroke:#000000;stroke-width:1.5;"/><line style="stroke:#000000;stroke-width:1.5;" x1="14" x2="173.0895" y1="29.0679" y2="29.0679"/><text fill="#000000" font-family="sans-serif" font-size="14" font-weight="bold" lengthAdjust="spacing" textLength="146.0895" x="18" y="20.9659">it.unimi.di.prog2.h10</text></g><!--cluster java.lang--><g class="cluster" data-entity="java.lang" data-source-line="91" data-uid="ent0012" id="cluster_java.lang"><path d="M856.5,118.5 L921.4238,118.5 A3.75,3.75 0 0 1 923.9238,121 L930.9238,143.5679 L943.5,143.5679 A2.5,2.5 0 0 1 946,146.0679 L946,202 A2.5,2.5 0 0 1 943.5,204.5 L856.5,204.5 A2.5,2.5 0 0 1 854,202 L854,121 A2.5,2.5 0 0 1 856.5,118.5" fill="none" style="stroke:#000000;stroke-width:1.5;"/><line style="stroke:#000000;stroke-width:1.5;" x1="854" x2="930.9238" y1="143.5679" y2="143.5679"/><text fill="#000000" font-family="sans-serif" font-size="14" font-weight="bold" lengthAdjust="spacing" textLength="63.9238" x="858" y="135.4659">java.lang</text></g><!--class SparsePoly--><g class="entity" data-entity="SparsePoly" data-source-line="12" data-uid="ent0003" id="entity_SparsePoly"><a href="SparsePoly.html" target="_top" title="SparsePoly.html" xlink:actuate="onRequest" xlink:href="SparsePoly.html" xlink:show="new" xlink:title="SparsePoly.html" xlink:type="simple"><rect fill="#F1F1F1" height="276.815" rx="2.5" ry="2.5" style="stroke:#181818;stroke-width:0.5;" width="247.3251" x="590.5" y="34"/><ellipse cx="673.7997" cy="50" fill="#ADD1B2" rx="11" ry="11" style="stroke:#181818;stroke-width:1;"/><path d="M676.7684,55.6406 Q676.1903,55.9375 675.5497,56.0781 Q674.9091,56.2344 674.2059,56.2344 Q671.7059,56.2344 670.3778,54.5938 Q669.0653,52.9375 669.0653,49.8125 Q669.0653,46.6875 670.3778,45.0313 Q671.7059,43.375 674.2059,43.375 Q674.9091,43.375 675.5497,43.5313 Q676.2059,43.6875 676.7684,43.9844 L676.7684,46.7031 Q676.1434,46.125 675.5497,45.8594 Q674.9559,45.5781 674.3309,45.5781 Q672.9872,45.5781 672.2997,46.6563 Q671.6122,47.7188 671.6122,49.8125 Q671.6122,51.9063 672.2997,52.9844 Q672.9872,54.0469 674.3309,54.0469 Q674.9559,54.0469 675.5497,53.7813 Q676.1434,53.5 676.7684,52.9219 L676.7684,55.6406 Z " fill="#000000"/><text fill="#000000" font-family="sans-serif" font-size="14" lengthAdjust="spacing" textLength="72.2257" x="694.2997" y="55.432">SparsePoly</text><line style="stroke:#181818;stroke-width:0.5;" x1="591.5" x2="836.8251" y1="66" y2="66"/><line style="stroke:#181818;stroke-width:0.5;" x1="591.5" x2="836.8251" y1="74" y2="74"/><ellipse cx="601.5" cy="89.034" fill="#84BE84" rx="3" ry="3" style="stroke:#038048;stroke-width:1;"/><text fill="#000000" font-family="sans-serif" font-size="14" lengthAdjust="spacing" textLength="80.6257" x="610.5" y="92.9659">SparsePoly()</text><ellipse cx="601.5" cy="108.1019" fill="#84BE84" rx="3" ry="3" style="stroke:#038048;stroke-width:1;"/><text fill="#000000" font-family="sans-serif" font-size="14" lengthAdjust="spacing" textLength="122.6535" x="610.5" y="112.0339">SparsePoly(int, int)</text><rect fill="#F24D5C" height="6" style="stroke:#C82930;stroke-width:1;" width="6" x="598.5" y="124.1698"/><text fill="#000000" font-family="sans-serif" font-size="14" lengthAdjust="spacing" textLength="153.9014" x="610.5" y="131.1018">SparsePoly(List&lt;Term&gt;)</text><ellipse cx="601.5" cy="146.2377" fill="#84BE84" rx="3" ry="3" style="stroke:#038048;stroke-width:1;"/><text fill="#000000" font-family="sans-serif" font-size="14" lengthAdjust="spacing" textLength="109.8296" x="610.5" y="150.1697">isZero(): boolean</text><rect fill="#F24D5C" height="6" style="stroke:#C82930;stroke-width:1;" width="6" x="598.5" y="162.3056"/><text fill="#000000" font-family="sans-serif" font-size="14" lengthAdjust="spacing" text-decoration="underline" textLength="221.3251" x="610.5" y="169.2376">findByDegree(List&lt;Term&gt;, int): int</text><ellipse cx="601.5" cy="184.3735" fill="#84BE84" rx="3" ry="3" style="stroke:#038048;stroke-width:1;"/><text fill="#000000" font-family="sans-serif" font-size="14" lengthAdjust="spacing" textLength="83.1457" x="610.5" y="188.3055">coeff(int): int</text><ellipse cx="601.5" cy="203.4415" fill="#84BE84" rx="3" ry="3" style="stroke:#038048;stroke-width:1;"/><text fill="#000000" font-family="sans-serif" font-size="14" lengthAdjust="spacing" textLength="79.7997" x="610.5" y="207.3734">degree(): int</text><rect fill="#F24D5C" height="6" style="stroke:#C82930;stroke-width:1;" width="6" x="598.5" y="219.5094"/><text fill="#000000" font-family="sans-serif" font-size="14" lengthAdjust="spacing" text-decoration="underline" textLength="218.4411" x="610.5" y="226.4414">addTerm(List&lt;Term&gt;, Term): void</text><ellipse cx="601.5" cy="241.5773" fill="#84BE84" rx="3" ry="3" style="stroke:#038048;stroke-width:1;"/><text fill="#000000" font-family="sans-serif" font-size="14" lengthAdjust="spacing" textLength="185.3173" x="610.5" y="245.5093">add(SparsePoly): SparsePoly</text><ellipse cx="601.5" cy="260.6452" fill="#84BE84" rx="3" ry="3" style="stroke:#038048;stroke-width:1;"/><text fill="#000000" font-family="sans-serif" font-size="14" lengthAdjust="spacing" textLength="185.5973" x="610.5" y="264.5772">mul(SparsePoly): SparsePoly</text><ellipse cx="601.5" cy="279.7131" fill="#84BE84" rx="3" ry="3" style="stroke:#038048;stroke-width:1;"/><text fill="#000000" font-family="sans-serif" font-size="14" lengthAdjust="spacing" textLength="184.2113" x="610.5" y="283.6451">sub(SparsePoly): SparsePoly</text><ellipse cx="601.5" cy="298.781" fill="#84BE84" rx="3" ry="3" style="stroke:#038048;stroke-width:1;"/><text fill="#000000" font-family="sans-serif" font-size="14" lengthAdjust="spacing" textLength="128.7295" x="610.5" y="302.713">minus(): SparsePoly</text></a></g><!--class SparsePoly.Term--><g class="entity" data-entity="SparsePoly.Term" data-source-line="27" data-uid="ent0004" id="entity_SparsePoly.Term"><a href="SparsePoly.Term.html" target="_top" title="SparsePoly.Term.html" xlink:actuate="onRequest" xlink:href="SparsePoly.Term.html" xlink:show="new" xlink:title="SparsePoly.Term.html" xlink:type="simple"><rect fill="#F1F1F1" height="143.3396" rx="2.5" ry="2.5" style="stroke:#181818;stroke-width:0.5;" width="142.5296" x="687.5" y="368"/><ellipse cx="702.5" cy="384" fill="#ADD1B2" rx="11" ry="11" style="stroke:#181818;stroke-width:1;"/><path d="M705.4688,389.6406 Q704.8906,389.9375 704.25,390.0781 Q703.6094,390.2344 702.9063,390.2344 Q700.4063,390.2344 699.0781,388.5938 Q697.7656,386.9375 697.7656,383.8125 Q697.7656,380.6875 699.0781,379.0313 Q700.4063,377.375 702.9063,377.375 Q703.6094,377.375 704.25,377.5313 Q704.9063,377.6875 705.4688,377.9844 L705.4688,380.7031 Q704.8438,380.125 704.25,379.8594 Q703.6563,379.5781 703.0313,379.5781 Q701.6875,379.5781 701,380.6563 Q700.3125,381.7188 700.3125,383.8125 Q700.3125,385.9063 701,386.9844 Q701.6875,388.0469 703.0313,388.0469 Q703.6563,388.0469 704.25,387.7813 Q704.8438,387.5 705.4688,386.9219 L705.4688,389.6406 Z " fill="#000000"/><text fill="#000000" font-family="sans-serif" font-size="14" lengthAdjust="spacing" textLength="110.5296" x="716.5" y="389.432">SparsePoly.Term</text><line style="stroke:#181818;stroke-width:0.5;" x1="688.5" x2="829.0296" y1="400" y2="400"/><rect fill="none" height="6" style="stroke:#C82930;stroke-width:1;" width="6" x="695.5" y="412.034"/><text fill="#000000" font-family="sans-serif" font-size="14" lengthAdjust="spacing" textLength="92.9736" x="707.5" y="418.9659">coefficient: int</text><rect fill="none" height="6" style="stroke:#C82930;stroke-width:1;" width="6" x="695.5" y="431.1019"/><text fill="#000000" font-family="sans-serif" font-size="14" lengthAdjust="spacing" textLength="71.3997" x="707.5" y="438.0339">degree: int</text><line style="stroke:#181818;stroke-width:0.5;" x1="688.5" x2="829.0296" y1="446.1358" y2="446.1358"/><ellipse cx="698.5" cy="461.1698" fill="#84BE84" rx="3" ry="3" style="stroke:#038048;stroke-width:1;"/><text fill="#000000" font-family="sans-serif" font-size="14" lengthAdjust="spacing" textLength="84.9797" x="707.5" y="465.1018">Term(int, int)</text><ellipse cx="698.5" cy="480.2377" fill="#84BE84" rx="3" ry="3" style="stroke:#038048;stroke-width:1;"/><text fill="#000000" font-family="sans-serif" font-size="14" lengthAdjust="spacing" textLength="101.3736" x="707.5" y="484.1697">coefficient(): int</text><ellipse cx="698.5" cy="499.3056" fill="#84BE84" rx="3" ry="3" style="stroke:#038048;stroke-width:1;"/><text fill="#000000" font-family="sans-serif" font-size="14" lengthAdjust="spacing" textLength="79.7997" x="707.5" y="503.2376">degree(): int</text></a></g><!--class ArrayIntSet--><g class="entity" data-entity="ArrayIntSet" data-source-line="35" data-uid="ent0005" id="entity_ArrayIntSet"><a href="ArrayIntSet.html" target="_top" title="ArrayIntSet.html" xlink:actuate="onRequest" xlink:href="ArrayIntSet.html" xlink:show="new" xlink:title="ArrayIntSet.html" xlink:type="simple"><rect fill="#F1F1F1" height="219.6113" rx="2.5" ry="2.5" style="stroke:#181818;stroke-width:0.5;" width="170.3814" x="22" y="62.5"/><ellipse cx="65.7054" cy="78.5" fill="#ADD1B2" rx="11" ry="11" style="stroke:#181818;stroke-width:1;"/><path d="M68.6741,84.1406 Q68.096,84.4375 67.4554,84.5781 Q66.8147,84.7344 66.1116,84.7344 Q63.6116,84.7344 62.2835,83.0938 Q60.971,81.4375 60.971,78.3125 Q60.971,75.1875 62.2835,73.5313 Q63.6116,71.875 66.1116,71.875 Q66.8147,71.875 67.4554,72.0313 Q68.1116,72.1875 68.6741,72.4844 L68.6741,75.2031 Q68.0491,74.625 67.4554,74.3594 Q66.8616,74.0781 66.2366,74.0781 Q64.8929,74.0781 64.2054,75.1563 Q63.5179,76.2188 63.5179,78.3125 Q63.5179,80.4063 64.2054,81.4844 Q64.8929,82.5469 66.2366,82.5469 Q66.8616,82.5469 67.4554,82.2813 Q68.0491,82 68.6741,81.4219 L68.6741,84.1406 Z " fill="#000000"/><text fill="#000000" font-family="sans-serif" font-size="14" lengthAdjust="spacing" textLength="74.5917" x="86.0843" y="83.932">ArrayIntSet</text><line style="stroke:#181818;stroke-width:0.5;" x1="23" x2="191.3814" y1="94.5" y2="94.5"/><rect fill="none" height="6" style="stroke:#C82930;stroke-width:1;" width="6" x="30" y="106.534"/><text fill="#000000" font-family="sans-serif" font-size="14" lengthAdjust="spacing" text-decoration="underline" textLength="144.3814" x="42" y="113.4659">INITIAL_CAPACITY: int</text><rect fill="none" height="6" style="stroke:#C82930;stroke-width:1;" width="6" x="30" y="125.6019"/><text fill="#000000" font-family="sans-serif" font-size="14" lengthAdjust="spacing" textLength="52.1358" x="42" y="132.5339">els: int[]</text><rect fill="none" height="6" style="stroke:#C82930;stroke-width:1;" width="6" x="30" y="144.6698"/><text fill="#000000" font-family="sans-serif" font-size="14" lengthAdjust="spacing" textLength="49.5038" x="42" y="151.6018">size: int</text><line style="stroke:#181818;stroke-width:0.5;" x1="23" x2="191.3814" y1="159.7038" y2="159.7038"/><rect fill="#F24D5C" height="6" style="stroke:#C82930;stroke-width:1;" width="6" x="30" y="171.7377"/><text fill="#000000" font-family="sans-serif" font-size="14" lengthAdjust="spacing" textLength="102.3536" x="42" y="178.6697">indexOf(int): int</text><ellipse cx="33" cy="193.8056" fill="#84BE84" rx="3" ry="3" style="stroke:#038048;stroke-width:1;"/><text fill="#000000" font-family="sans-serif" font-size="14" lengthAdjust="spacing" textLength="98.6156" x="42" y="197.7376">insert(int): void</text><ellipse cx="33" cy="212.8735" fill="#84BE84" rx="3" ry="3" style="stroke:#038048;stroke-width:1;"/><text fill="#000000" font-family="sans-serif" font-size="14" lengthAdjust="spacing" textLength="111.1596" x="42" y="216.8055">remove(int): void</text><ellipse cx="33" cy="231.9415" fill="#84BE84" rx="3" ry="3" style="stroke:#038048;stroke-width:1;"/><text fill="#000000" font-family="sans-serif" font-size="14" lengthAdjust="spacing" textLength="110.3896" x="42" y="235.8734">isIn(int): boolean</text><ellipse cx="33" cy="251.0094" fill="#84BE84" rx="3" ry="3" style="stroke:#038048;stroke-width:1;"/><text fill="#000000" font-family="sans-serif" font-size="14" lengthAdjust="spacing" textLength="57.9038" x="42" y="254.9414">size(): int</text><ellipse cx="33" cy="270.0773" fill="#84BE84" rx="3" ry="3" style="stroke:#038048;stroke-width:1;"/><text fill="#000000" font-family="sans-serif" font-size="14" lengthAdjust="spacing" textLength="80.0237" x="42" y="274.0093">choose(): int</text></a></g><!--class ListIntSet--><g class="entity" data-entity="ListIntSet" data-source-line="47" data-uid="ent0006" id="entity_ListIntSet"><a href="ListIntSet.html" target="_top" title="ListIntSet.html" xlink:actuate="onRequest" xlink:href="ListIntSet.html" xlink:show="new" xlink:title="ListIntSet.html" xlink:type="simple"><rect fill="#F1F1F1" height="181.4754" rx="2.5" ry="2.5" style="stroke:#181818;stroke-width:0.5;" width="138.9656" x="210.5" y="82"/><ellipse cx="245.8264" cy="98" fill="#ADD1B2" rx="11" ry="11" style="stroke:#181818;stroke-width:1;"/><path d="M248.7952,103.6406 Q248.217,103.9375 247.5764,104.0781 Q246.9358,104.2344 246.2327,104.2344 Q243.7327,104.2344 242.4045,102.5938 Q241.092,100.9375 241.092,97.8125 Q241.092,94.6875 242.4045,93.0313 Q243.7327,91.375 246.2327,91.375 Q246.9358,91.375 247.5764,91.5313 Q248.2327,91.6875 248.7952,91.9844 L248.7952,94.7031 Q248.1702,94.125 247.5764,93.8594 Q246.9827,93.5781 246.3577,93.5781 Q245.0139,93.5781 244.3264,94.6563 Q243.6389,95.7188 243.6389,97.8125 Q243.6389,99.9063 244.3264,100.9844 Q245.0139,102.0469 246.3577,102.0469 Q246.9827,102.0469 247.5764,101.7813 Q248.1702,101.5 248.7952,100.9219 L248.7952,103.6406 Z " fill="#000000"/><text fill="#000000" font-family="sans-serif" font-size="14" lengthAdjust="spacing" textLength="61.7958" x="264.3434" y="103.432">ListIntSet</text><line style="stroke:#181818;stroke-width:0.5;" x1="211.5" x2="348.4656" y1="114" y2="114"/><rect fill="none" height="6" style="stroke:#C82930;stroke-width:1;" width="6" x="218.5" y="126.034"/><text fill="#000000" font-family="sans-serif" font-size="14" lengthAdjust="spacing" textLength="112.9656" x="230.5" y="132.9659">els: List&lt;Integer&gt;</text><line style="stroke:#181818;stroke-width:0.5;" x1="211.5" x2="348.4656" y1="141.0679" y2="141.0679"/><rect fill="#F24D5C" height="6" style="stroke:#C82930;stroke-width:1;" width="6" x="218.5" y="153.1019"/><text fill="#000000" font-family="sans-serif" font-size="14" lengthAdjust="spacing" textLength="109.2976" x="230.5" y="160.0339">getIndex(int): int</text><ellipse cx="221.5" cy="175.1698" fill="#84BE84" rx="3" ry="3" style="stroke:#038048;stroke-width:1;"/><text fill="#000000" font-family="sans-serif" font-size="14" lengthAdjust="spacing" textLength="98.6156" x="230.5" y="179.1018">insert(int): void</text><ellipse cx="221.5" cy="194.2377" fill="#84BE84" rx="3" ry="3" style="stroke:#038048;stroke-width:1;"/><text fill="#000000" font-family="sans-serif" font-size="14" lengthAdjust="spacing" textLength="111.1596" x="230.5" y="198.1697">remove(int): void</text><ellipse cx="221.5" cy="213.3056" fill="#84BE84" rx="3" ry="3" style="stroke:#038048;stroke-width:1;"/><text fill="#000000" font-family="sans-serif" font-size="14" lengthAdjust="spacing" textLength="110.3896" x="230.5" y="217.2376">isIn(int): boolean</text><ellipse cx="221.5" cy="232.3735" fill="#84BE84" rx="3" ry="3" style="stroke:#038048;stroke-width:1;"/><text fill="#000000" font-family="sans-serif" font-size="14" lengthAdjust="spacing" textLength="57.9038" x="230.5" y="236.3055">size(): int</text><ellipse cx="221.5" cy="251.4415" fill="#84BE84" rx="3" ry="3" style="stroke:#038048;stroke-width:1;"/><text fill="#000000" font-family="sans-serif" font-size="14" lengthAdjust="spacing" textLength="80.0237" x="230.5" y="255.3734">choose(): int</text></a></g><!--class DensePoly--><g class="entity" data-entity="DensePoly" data-source-line="57" data-uid="ent0007" id="entity_DensePoly"><a href="DensePoly.html" target="_top" title="DensePoly.html" xlink:actuate="onRequest" xlink:href="DensePoly.html" xlink:show="new" xlink:title="DensePoly.html" xlink:type="simple"><rect fill="#F1F1F1" height="257.7471" rx="2.5" ry="2.5" style="stroke:#181818;stroke-width:0.5;" width="205.2693" x="367.5" y="43.5"/><ellipse cx="431.3538" cy="59.5" fill="#ADD1B2" rx="11" ry="11" style="stroke:#181818;stroke-width:1;"/><path d="M434.3225,65.1406 Q433.7444,65.4375 433.1038,65.5781 Q432.4632,65.7344 431.76,65.7344 Q429.26,65.7344 427.9319,64.0938 Q426.6194,62.4375 426.6194,59.3125 Q426.6194,56.1875 427.9319,54.5313 Q429.26,52.875 431.76,52.875 Q432.4632,52.875 433.1038,53.0313 Q433.76,53.1875 434.3225,53.4844 L434.3225,56.2031 Q433.6975,55.625 433.1038,55.3594 Q432.51,55.0781 431.885,55.0781 Q430.5413,55.0781 429.8538,56.1563 Q429.1663,57.2188 429.1663,59.3125 Q429.1663,61.4063 429.8538,62.4844 Q430.5413,63.5469 431.885,63.5469 Q432.51,63.5469 433.1038,63.2813 Q433.6975,63 434.3225,62.4219 L434.3225,65.1406 Z " fill="#000000"/><text fill="#000000" font-family="sans-serif" font-size="14" lengthAdjust="spacing" textLength="69.0617" x="451.8538" y="64.932">DensePoly</text><line style="stroke:#181818;stroke-width:0.5;" x1="368.5" x2="571.7693" y1="75.5" y2="75.5"/><rect fill="none" height="6" style="stroke:#C82930;stroke-width:1;" width="6" x="375.5" y="87.534"/><text fill="#000000" font-family="sans-serif" font-size="14" lengthAdjust="spacing" textLength="102.1856" x="387.5" y="94.4659">coefficient: int[]</text><line style="stroke:#181818;stroke-width:0.5;" x1="368.5" x2="571.7693" y1="102.5679" y2="102.5679"/><ellipse cx="378.5" cy="117.6019" fill="#84BE84" rx="3" ry="3" style="stroke:#038048;stroke-width:1;"/><text fill="#000000" font-family="sans-serif" font-size="14" lengthAdjust="spacing" textLength="77.4617" x="387.5" y="121.5339">DensePoly()</text><ellipse cx="378.5" cy="136.6698" fill="#84BE84" rx="3" ry="3" style="stroke:#038048;stroke-width:1;"/><text fill="#000000" font-family="sans-serif" font-size="14" lengthAdjust="spacing" textLength="119.4895" x="387.5" y="140.6018">DensePoly(int, int)</text><ellipse cx="378.5" cy="155.7377" fill="#84BE84" rx="3" ry="3" style="stroke:#038048;stroke-width:1;"/><text fill="#000000" font-family="sans-serif" font-size="14" lengthAdjust="spacing" textLength="103.9916" x="387.5" y="159.6697">DensePoly(int[])</text><ellipse cx="378.5" cy="174.8056" fill="#84BE84" rx="3" ry="3" style="stroke:#038048;stroke-width:1;"/><text fill="#000000" font-family="sans-serif" font-size="14" lengthAdjust="spacing" textLength="79.7997" x="387.5" y="178.7376">degree(): int</text><ellipse cx="378.5" cy="193.8735" fill="#84BE84" rx="3" ry="3" style="stroke:#038048;stroke-width:1;"/><text fill="#000000" font-family="sans-serif" font-size="14" lengthAdjust="spacing" textLength="83.1457" x="387.5" y="197.8055">coeff(int): int</text><ellipse cx="378.5" cy="212.9415" fill="#84BE84" rx="3" ry="3" style="stroke:#038048;stroke-width:1;"/><text fill="#000000" font-family="sans-serif" font-size="14" lengthAdjust="spacing" textLength="109.8296" x="387.5" y="216.8734">isZero(): boolean</text><ellipse cx="378.5" cy="232.0094" fill="#84BE84" rx="3" ry="3" style="stroke:#038048;stroke-width:1;"/><text fill="#000000" font-family="sans-serif" font-size="14" lengthAdjust="spacing" textLength="178.9893" x="387.5" y="235.9414">add(DensePoly): DensePoly</text><ellipse cx="378.5" cy="251.0773" fill="#84BE84" rx="3" ry="3" style="stroke:#038048;stroke-width:1;"/><text fill="#000000" font-family="sans-serif" font-size="14" lengthAdjust="spacing" textLength="179.2693" x="387.5" y="255.0093">mul(DensePoly): DensePoly</text><ellipse cx="378.5" cy="270.1452" fill="#84BE84" rx="3" ry="3" style="stroke:#038048;stroke-width:1;"/><text fill="#000000" font-family="sans-serif" font-size="14" lengthAdjust="spacing" textLength="177.8833" x="387.5" y="274.0772">sub(DensePoly): DensePoly</text><ellipse cx="378.5" cy="289.2131" fill="#84BE84" rx="3" ry="3" style="stroke:#038048;stroke-width:1;"/><text fill="#000000" font-family="sans-serif" font-size="14" lengthAdjust="spacing" textLength="125.5655" x="387.5" y="293.1451">minus(): DensePoly</text></a></g><!--class ArrayIntSetClient--><g class="entity" data-entity="ArrayIntSetClient" data-source-line="71" data-uid="ent0008" id="entity_ArrayIntSetClient"><a href="ArrayIntSetClient.html" target="_top" title="ArrayIntSetClient.html" xlink:actuate="onRequest" xlink:href="ArrayIntSetClient.html" xlink:show="new" xlink:title="ArrayIntSetClient.html" xlink:type="simple"><rect fill="#F1F1F1" height="67.0679" rx="2.5" ry="2.5" style="stroke:#181818;stroke-width:0.5;" width="151.4115" x="45.5" y="406"/><ellipse cx="63.7157" cy="422" fill="#ADD1B2" rx="11" ry="11" style="stroke:#181818;stroke-width:1;"/><path d="M66.6844,427.6406 Q66.1063,427.9375 65.4657,428.0781 Q64.8251,428.2344 64.1219,428.2344 Q61.6219,428.2344 60.2938,426.5938 Q58.9813,424.9375 58.9813,421.8125 Q58.9813,418.6875 60.2938,417.0313 Q61.6219,415.375 64.1219,415.375 Q64.8251,415.375 65.4657,415.5313 Q66.1219,415.6875 66.6844,415.9844 L66.6844,418.7031 Q66.0594,418.125 65.4657,417.8594 Q64.8719,417.5781 64.2469,417.5781 Q62.9032,417.5781 62.2157,418.6563 Q61.5282,419.7188 61.5282,421.8125 Q61.5282,423.9063 62.2157,424.9844 Q62.9032,426.0469 64.2469,426.0469 Q64.8719,426.0469 65.4657,425.7813 Q66.0594,425.5 66.6844,424.9219 L66.6844,427.6406 Z " fill="#000000"/><text fill="#000000" font-family="sans-serif" font-size="14" lengthAdjust="spacing" textLength="112.2656" x="78.4303" y="427.432">ArrayIntSetClient</text><line style="stroke:#181818;stroke-width:0.5;" x1="46.5" x2="195.9115" y1="438" y2="438"/><line style="stroke:#181818;stroke-width:0.5;" x1="46.5" x2="195.9115" y1="446" y2="446"/><ellipse cx="56.5" cy="461.034" fill="#84BE84" rx="3" ry="3" style="stroke:#038048;stroke-width:1;"/><text fill="#000000" font-family="sans-serif" font-size="14" lengthAdjust="spacing" text-decoration="underline" textLength="125.4115" x="65.5" y="464.9659">main(String[]): void</text></a></g><!--class ListIntSetClient--><g class="entity" data-entity="ListIntSetClient" data-source-line="75" data-uid="ent0009" id="entity_ListIntSetClient"><a href="ListIntSetClient.html" target="_top" title="ListIntSetClient.html" xlink:actuate="onRequest" xlink:href="ListIntSetClient.html" xlink:show="new" xlink:title="ListIntSetClient.html" xlink:type="simple"><rect fill="#F1F1F1" height="67.0679" rx="2.5" ry="2.5" style="stroke:#181818;stroke-width:0.5;" width="151.4115" x="214.5" y="406"/><ellipse cx="238.4739" cy="422" fill="#ADD1B2" rx="11" ry="11" style="stroke:#181818;stroke-width:1;"/><path d="M241.4426,427.6406 Q240.8645,427.9375 240.2239,428.0781 Q239.5832,428.2344 238.8801,428.2344 Q236.3801,428.2344 235.052,426.5938 Q233.7395,424.9375 233.7395,421.8125 Q233.7395,418.6875 235.052,417.0313 Q236.3801,415.375 238.8801,415.375 Q239.5832,415.375 240.2239,415.5313 Q240.8801,415.6875 241.4426,415.9844 L241.4426,418.7031 Q240.8176,418.125 240.2239,417.8594 Q239.6301,417.5781 239.0051,417.5781 Q237.6614,417.5781 236.9739,418.6563 Q236.2864,419.7188 236.2864,421.8125 Q236.2864,423.9063 236.9739,424.9844 Q237.6614,426.0469 239.0051,426.0469 Q239.6301,426.0469 240.2239,425.7813 Q240.8176,425.5 241.4426,424.9219 L241.4426,427.6406 Z " fill="#000000"/><text fill="#000000" font-family="sans-serif" font-size="14" lengthAdjust="spacing" textLength="99.4696" x="254.4681" y="427.432">ListIntSetClient</text><line style="stroke:#181818;stroke-width:0.5;" x1="215.5" x2="364.9115" y1="438" y2="438"/><line style="stroke:#181818;stroke-width:0.5;" x1="215.5" x2="364.9115" y1="446" y2="446"/><ellipse cx="225.5" cy="461.034" fill="#84BE84" rx="3" ry="3" style="stroke:#038048;stroke-width:1;"/><text fill="#000000" font-family="sans-serif" font-size="14" lengthAdjust="spacing" text-decoration="underline" textLength="125.4115" x="234.5" y="464.9659">main(String[]): void</text></a></g><!--class DensePolyClient--><g class="entity" data-entity="DensePolyClient" data-source-line="79" data-uid="ent0010" id="entity_DensePolyClient"><a href="DensePolyClient.html" target="_top" title="DensePolyClient.html" xlink:actuate="onRequest" xlink:href="DensePolyClient.html" xlink:show="new" xlink:title="DensePolyClient.html" xlink:type="simple"><rect fill="#F1F1F1" height="86.1358" rx="2.5" ry="2.5" style="stroke:#181818;stroke-width:0.5;" width="204.2053" x="384" y="396.5"/><ellipse cx="428.4849" cy="412.5" fill="#ADD1B2" rx="11" ry="11" style="stroke:#181818;stroke-width:1;"/><path d="M431.4536,418.1406 Q430.8755,418.4375 430.2349,418.5781 Q429.5943,418.7344 428.8911,418.7344 Q426.3911,418.7344 425.063,417.0938 Q423.7505,415.4375 423.7505,412.3125 Q423.7505,409.1875 425.063,407.5313 Q426.3911,405.875 428.8911,405.875 Q429.5943,405.875 430.2349,406.0313 Q430.8911,406.1875 431.4536,406.4844 L431.4536,409.2031 Q430.8286,408.625 430.2349,408.3594 Q429.6411,408.0781 429.0161,408.0781 Q427.6724,408.0781 426.9849,409.1563 Q426.2974,410.2188 426.2974,412.3125 Q426.2974,414.4063 426.9849,415.4844 Q427.6724,416.5469 429.0161,416.5469 Q429.6411,416.5469 430.2349,416.2813 Q430.8286,416 431.4536,415.4219 L431.4536,418.1406 Z " fill="#000000"/><text fill="#000000" font-family="sans-serif" font-size="14" lengthAdjust="spacing" textLength="106.7356" x="448.9849" y="417.932">DensePolyClient</text><line style="stroke:#181818;stroke-width:0.5;" x1="385" x2="587.2053" y1="428.5" y2="428.5"/><line style="stroke:#181818;stroke-width:0.5;" x1="385" x2="587.2053" y1="436.5" y2="436.5"/><rect fill="#F24D5C" height="6" style="stroke:#C82930;stroke-width:1;" width="6" x="392" y="448.534"/><text fill="#000000" font-family="sans-serif" font-size="14" lengthAdjust="spacing" text-decoration="underline" textLength="178.2053" x="404" y="455.4659">asString(DensePoly): String</text><ellipse cx="395" cy="470.6019" fill="#84BE84" rx="3" ry="3" style="stroke:#038048;stroke-width:1;"/><text fill="#000000" font-family="sans-serif" font-size="14" lengthAdjust="spacing" text-decoration="underline" textLength="125.4115" x="404" y="474.5339">main(String[]): void</text></a></g><!--class SparsePolyClient--><g class="entity" data-entity="SparsePolyClient" data-source-line="84" data-uid="ent0011" id="entity_SparsePolyClient"><a href="SparsePolyClient.html" target="_top" title="SparsePolyClient.html" xlink:actuate="onRequest" xlink:href="SparsePolyClient.html" xlink:show="new" xlink:title="SparsePolyClient.html" xlink:type="simple"><rect fill="#F1F1F1" height="86.1358" rx="2.5" ry="2.5" style="stroke:#181818;stroke-width:0.5;" width="207.3693" x="22.5" y="548"/><ellipse cx="66.9849" cy="564" fill="#ADD1B2" rx="11" ry="11" style="stroke:#181818;stroke-width:1;"/><path d="M69.9536,569.6406 Q69.3755,569.9375 68.7349,570.0781 Q68.0943,570.2344 67.3911,570.2344 Q64.8911,570.2344 63.563,568.5938 Q62.2505,566.9375 62.2505,563.8125 Q62.2505,560.6875 63.563,559.0313 Q64.8911,557.375 67.3911,557.375 Q68.0943,557.375 68.7349,557.5313 Q69.3911,557.6875 69.9536,557.9844 L69.9536,560.7031 Q69.3286,560.125 68.7349,559.8594 Q68.1411,559.5781 67.5161,559.5781 Q66.1724,559.5781 65.4849,560.6563 Q64.7974,561.7188 64.7974,563.8125 Q64.7974,565.9063 65.4849,566.9844 Q66.1724,568.0469 67.5161,568.0469 Q68.1411,568.0469 68.7349,567.7813 Q69.3286,567.5 69.9536,566.9219 L69.9536,569.6406 Z " fill="#000000"/><text fill="#000000" font-family="sans-serif" font-size="14" lengthAdjust="spacing" textLength="109.8996" x="87.4849" y="569.432">SparsePolyClient</text><line style="stroke:#181818;stroke-width:0.5;" x1="23.5" x2="228.8693" y1="580" y2="580"/><line style="stroke:#181818;stroke-width:0.5;" x1="23.5" x2="228.8693" y1="588" y2="588"/><rect fill="#F24D5C" height="6" style="stroke:#C82930;stroke-width:1;" width="6" x="30.5" y="600.034"/><text fill="#000000" font-family="sans-serif" font-size="14" lengthAdjust="spacing" text-decoration="underline" textLength="181.3693" x="42.5" y="606.9659">asString(SparsePoly): String</text><ellipse cx="33.5" cy="622.1019" fill="#84BE84" rx="3" ry="3" style="stroke:#038048;stroke-width:1;"/><text fill="#000000" font-family="sans-serif" font-size="14" lengthAdjust="spacing" text-decoration="underline" textLength="125.4115" x="42.5" y="626.0339">main(String[]): void</text></a></g><!--class Record--><g class="entity" data-entity="Record" data-source-line="92" data-uid="ent0013" id="entity_Record"><a href="https://docs.oracle.com/en/java/javase/25/docs/api/java.base/java/lang/Record.html?is-external=true" target="_top" title="https://docs.oracle.com/en/java/javase/25/docs/api/java.base/java/lang/Record.html?is-external=true" xlink:actuate="onRequest" xlink:href="https://docs.oracle.com/en/java/javase/25/docs/api/java.base/java/lang/Record.html?is-external=true" xlink:show="new" xlink:title="https://docs.oracle.com/en/java/javase/25/docs/api/java.base/java/lang/Record.html?is-external=true" xlink:type="simple"><rect fill="#F1F1F1" height="48" rx="2.5" ry="2.5" style="stroke:#181818;stroke-width:0.5;" width="74.9099" x="862.5" y="148.5"/><ellipse cx="877.5" cy="164.5" fill="#A9DCDF" rx="11" ry="11" style="stroke:#181818;stroke-width:1;"/><path d="M877.6094,159.8438 L876.4531,164.9219 L878.7813,164.9219 L877.6094,159.8438 Z M876.125,157.6094 L879.1094,157.6094 L882.4688,170 L880.0156,170 L879.25,166.9375 L875.9688,166.9375 L875.2188,170 L872.7813,170 L876.125,157.6094 Z " fill="#000000"/><text fill="#000000" font-family="sans-serif" font-size="14" font-style="italic" lengthAdjust="spacing" textLength="42.9099" x="891.5" y="169.932">Record</text><line style="stroke:#181818;stroke-width:0.5;" x1="863.5" x2="936.4099" y1="180.5" y2="180.5"/><line style="stroke:#181818;stroke-width:0.5;" x1="863.5" x2="936.4099" y1="188.5" y2="188.5"/></a></g><g class="link" data-entity-1="SparsePoly" data-entity-2="SparsePoly.Term" data-uid="lnk14" id="link_SparsePoly_SparsePoly.Term"><polygon fill="#181818" points="720.3496,367.573,721.0223,357.7471,718.6357,362.8759,713.507,360.4893,720.3496,367.573" style="stroke:#181818;stroke-width:1;"/><path d="M708.6846,311.0586 C709.9939,324.3163 712.0218,337.4793 715,350 C716.3897,355.8426 716.1653,356.1053 718.293,361.9365" fill="none" style="stroke:#181818;stroke-width:1;"/><text fill="#000000" font-family="sans-serif" font-size="13" lengthAdjust="spacing" textLength="35.776" x="717" y="344.897">terms</text><text fill="#000000" font-family="sans-serif" font-size="13" lengthAdjust="spacing" textLength="7.163" x="712.3496" y="363.47">*</text></g><g class="link" data-entity-1="Record" data-entity-2="SparsePoly.Term" data-uid="lnk15" id="link_Record_SparsePoly.Term"><polygon fill="none" points="893.6701,196.6883,882.8981,212.3077,894.4241,215.647,893.6701,196.6883" style="stroke:#181818;stroke-width:1;"/><path d="M888.6611,213.9773 C880.5485,241.9786 870.1057,272.7849 850,311 C839.8701,330.2539 827.1847,349.9253 814.5302,367.873" fill="none" style="stroke:#181818;stroke-width:1;"/></g><g class="link" data-entity-1="SparsePoly" data-entity-2="SparsePoly.Term" data-uid="lnk16" id="link_SparsePoly_SparsePoly.Term"><ellipse cx="752.4966" cy="319.2644" fill="#FFFFFF" rx="8" ry="8" style="stroke:#181818;stroke-width:1;"/><line style="stroke:#181818;stroke-width:1;" x1="753.9491" x2="751.0442" y1="327.1314" y2="311.3974"/><line style="stroke:#181818;stroke-width:1;" x1="744.6296" x2="760.3637" y1="320.7169" y2="317.812"/><path d="M753.9491,327.1314 C755.0435,333.059 753.1327,323.2108 754,329 C755.8749,341.5154 757.1132,354.9176 757.919,367.9012" fill="none" style="stroke:#181818;stroke-width:1;"/></g><g class="footer" data-source-line="105"><text fill="#888888" font-family="sans-serif" font-size="10" lengthAdjust="spacing" textLength="2.6" x="467.2" y="654.69">&#160;</text><a href="https://github.com/talsma-ict/umldoclet" target="_top" title="https://github.com/talsma-ict/umldoclet" xlink:actuate="onRequest" xlink:href="https://github.com/talsma-ict/umldoclet" xlink:show="new" xlink:title="https://github.com/talsma-ict/umldoclet" xlink:type="simple"><text fill="#888888" font-family="sans-serif" font-size="10" lengthAdjust="spacing" textLength="76.7199" x="430.14" y="668.31">UMLDoclet 2.2.3</text></a></g><!--SRC=[rLTBSzis4BxdLsoJG-JAV4Y94vNZkgFAcLOPfVNOog5LDHs8N56eIO05G3TAwlyU05Jua2YRCysbF934xkBR1nQB1G30SvZmR2jel56WEAWDbV3-tGm8Yo16Xe8eZ82c94O9AqmuYsKXY41ojU42-DgEGYu4oeopYB8Otf8x0fBd8aJfFda2LjNy2_e_HDRGLrj3lEHXWWfwavEQIKD_yCeP-iCpc9D4fWIcaxcxGwlc3DsX-m8qTa93P593vYn2OSqQPoJKdrd1EOKx599ofkVuEnpZQiYP8fH9o8XGqhXqbH2cZAq3r-XtNqDlV3DhskP_PsqxXR5W98_Wcl-Tb-v-amaIQuiJikMv0fcY8enObjGsIzIgYDBn2u9YWZRqLeSPg79pHbFgHjJD18-7xcRWmwT2o3nXGgI46prVuXLFjh1OL0Dtez9akTJoK7lwbK3lv2Y7CdKA-jMKS6eICohL-Hn5Uh67GkNlA7Zl980LvmaIrc1_aeee6jw3iwOi-d5xYR50hA4LQWFpRkA67DVhtX5cLC2qi2g598gCXeOkyz6JxZYDce1Qk5TvgqMgGLCmpPDkWZ9VTKIaB9UzTe7xusll6b-Q2M0exLdWs6ZIa29JXp5pYd2snDa6i3qv-ZN8NlSrEl1eB0JPJfcwqLjZiQYDsZsfrdVwotG-7S_-d8olnfFf_BSMlp2HbhfODkcIVcpnrj4PYXz-FPfqkagWK3lkOGe9JFaT7cLJEMKxPjj6wHkRMkCORZYNZyVHf7aPncfm91ziPEpEq68OexXeycFKytKq_f-nk3GLVrSWo_-EEsClL_hb_FtoMJ6ER926m69vqhM4FLpw7gwtjf2LYhLG-NzOnZg8cIBM1UrB2JlaFxJV9uc9UdFN5xH7zdu_rKTsxqO9tN3emEwbs0DRezIuJ_gw2iimbFhsA8_LDY8BNOtW5wIlOc1rQ9GMxfCwczWyvFwhZVVDbkWltKswkY6BQtQGbLI2X6hdopNg1ZJI7coKocJWUH4FfSkrH89ko5CFcMTWx4kYDpop4Xx9g2MvAqEr4aQHL-1Pzt-Wqi4F2dMJbtolH8xBPTt8rduj26hzcUDSmDDldpukQS_k0BIgL5hiql4Ws3bu_g_ZT0JgQ5s_Ew15F9Tgcs1rKgmvrmRlPSZFsmp5ZBBR2KzqZ_jirCvzR_hqX3BKLuFmbg5UIB-M2rQTLzEtq_K7gzOvfcgJh-mIAtj7S6Yel3nDek9oi7TDsAtTS_Yfl7-O7juP-CxmzNmm3FmNmM3a-cSlNuu6ez6exmy2tr-yoGNFqBlcAIu_0m00]--></g></svg>