<svg xmlns="http://www.w3.org/2000/svg" xmlns:xlink="http://www.w3.org/1999/xlink" contentStyleType="text/css" data-diagram-type="CLASS" height="268px" preserveAspectRatio="none" style="width:421px;height:268px;background:#FFFFFF;" version="1.1" viewBox="0 0 421 268" width="421px" zoomAndPan="magnify"><defs/><g><!--cluster it.unimi.di.prog2.s05--><g class="cluster" data-entity="it.unimi.di.prog2.s05" data-source-line="10" data-uid="ent0002" id="cluster_it.unimi.di.prog2.s05"><path d="M16.5,4 L161.3495,4 A3.75,3.75 0 0 1 163.8495,6.5 L170.8495,29.0679 L411.5,29.0679 A2.5,2.5 0 0 1 414,31.5679 L414,228.5 A2.5,2.5 0 0 1 411.5,231 L16.5,231 A2.5,2.5 0 0 1 14,228.5 L14,6.5 A2.5,2.5 0 0 1 16.5,4" fill="none" style="stroke:#000000;stroke-width:1.5;"/><line style="stroke:#000000;stroke-width:1.5;" x1="14" x2="170.8495" y1="29.0679" y2="29.0679"/><text fill="#000000" font-family="sans-serif" font-size="14" font-weight="bold" lengthAdjust="spacing" textLength="143.8495" x="18" y="20.9659">it.unimi.di.prog2.s05</text></g><!--class ArrayUtils--><g class="entity" data-entity="ArrayUtils" data-source-line="12" data-uid="ent0003" id="entity_ArrayUtils"><a href="ArrayUtils.html" target="_top" title="ArrayUtils.html" xlink:actuate="onRequest" xlink:href="ArrayUtils.html" xlink:show="new" xlink:title="ArrayUtils.html" xlink:type="simple"><rect fill="#F1F1F1" height="67.0679" rx="2.5" ry="2.5" style="stroke:#181818;stroke-width:0.5;" width="196.5893" x="22.5" y="34"/><ellipse cx="84.1838" cy="50" fill="#ADD1B2" rx="11" ry="11" style="stroke:#181818;stroke-width:1;"/><path d="M87.1525,55.6406 Q86.5744,55.9375 85.9338,56.0781 Q85.2932,56.2344 84.59,56.2344 Q82.09,56.2344 80.7619,54.5938 Q79.4494,52.9375 79.4494,49.8125 Q79.4494,46.6875 80.7619,45.0313 Q82.09,43.375 84.59,43.375 Q85.2932,43.375 85.9338,43.5313 Q86.59,43.6875 87.1525,43.9844 L87.1525,46.7031 Q86.5275,46.125 85.9338,45.8594 Q85.34,45.5781 84.715,45.5781 Q83.3713,45.5781 82.6838,46.6563 Q81.9963,47.7188 81.9963,49.8125 Q81.9963,51.9063 82.6838,52.9844 Q83.3713,54.0469 84.715,54.0469 Q85.34,54.0469 85.9338,53.7813 Q86.5275,53.5 87.1525,52.9219 L87.1525,55.6406 Z " fill="#000000"/><text fill="#000000" font-family="sans-serif" font-size="14" lengthAdjust="spacing" textLength="64.7218" x="104.6838" y="55.432">ArrayUtils</text><line style="stroke:#181818;stroke-width:0.5;" x1="23.5" x2="218.0893" y1="66" y2="66"/><line style="stroke:#181818;stroke-width:0.5;" x1="23.5" x2="218.0893" y1="74" y2="74"/><polygon fill="#4177AF" points="33.5,85.034,29.5,91.034,37.5,91.034" style="stroke:#1963A0;stroke-width:1;"/><text fill="#000000" font-family="sans-serif" font-size="14" lengthAdjust="spacing" text-decoration="underline" textLength="170.5893" x="42.5" y="92.9659">binarySearch(int[], int): int</text></a></g><!--class MathFunctionsClient--><g class="entity" data-entity="MathFunctionsClient" data-source-line="16" data-uid="ent0004" id="entity_MathFunctionsClient"><a href="MathFunctionsClient.html" target="_top" title="MathFunctionsClient.html" xlink:actuate="onRequest" xlink:href="MathFunctionsClient.html" xlink:show="new" xlink:title="MathFunctionsClient.html" xlink:type="simple"><rect fill="#F1F1F1" height="67.0679" rx="2.5" ry="2.5" style="stroke:#181818;stroke-width:0.5;" width="167.7155" x="238" y="34"/><ellipse cx="253" cy="50" fill="#ADD1B2" rx="11" ry="11" style="stroke:#181818;stroke-width:1;"/><path d="M255.9688,55.6406 Q255.3906,55.9375 254.75,56.0781 Q254.1094,56.2344 253.4063,56.2344 Q250.9063,56.2344 249.5781,54.5938 Q248.2656,52.9375 248.2656,49.8125 Q248.2656,46.6875 249.5781,45.0313 Q250.9063,43.375 253.4063,43.375 Q254.1094,43.375 254.75,43.5313 Q255.4063,43.6875 255.9688,43.9844 L255.9688,46.7031 Q255.3438,46.125 254.75,45.8594 Q254.1563,45.5781 253.5313,45.5781 Q252.1875,45.5781 251.5,46.6563 Q250.8125,47.7188 250.8125,49.8125 Q250.8125,51.9063 251.5,52.9844 Q252.1875,54.0469 253.5313,54.0469 Q254.1563,54.0469 254.75,53.7813 Q255.3438,53.5 255.9688,52.9219 L255.9688,55.6406 Z " fill="#000000"/><text fill="#000000" font-family="sans-serif" font-size="14" lengthAdjust="spacing" textLength="135.7155" x="267" y="55.432">MathFunctionsClient</text><line style="stroke:#181818;stroke-width:0.5;" x1="239" x2="404.7155" y1="66" y2="66"/><line style="stroke:#181818;stroke-width:0.5;" x1="239" x2="404.7155" y1="74" y2="74"/><ellipse cx="249" cy="89.034" fill="#84BE84" rx="3" ry="3" style="stroke:#038048;stroke-width:1;"/><text fill="#000000" font-family="sans-serif" font-size="14" lengthAdjust="spacing" text-decoration="underline" textLength="125.4115" x="258" y="92.9659">main(String[]): void</text></a></g><!--class ArrayUtilsClient--><g class="entity" data-entity="ArrayUtilsClient" data-source-line="20" data-uid="ent0005" id="entity_ArrayUtilsClient"><a href="ArrayUtilsClient.html" target="_top" title="ArrayUtilsClient.html" xlink:actuate="onRequest" xlink:href="ArrayUtilsClient.html" xlink:show="new" xlink:title="ArrayUtilsClient.html" xlink:type="simple"><rect fill="#F1F1F1" height="86.1358" rx="2.5" ry="2.5" style="stroke:#181818;stroke-width:0.5;" width="151.4115" x="45.5" y="137"/><ellipse cx="68.1572" cy="153" fill="#ADD1B2" rx="11" ry="11" style="stroke:#181818;stroke-width:1;"/><path d="M71.1259,158.6406 Q70.5478,158.9375 69.9072,159.0781 Q69.2665,159.2344 68.5634,159.2344 Q66.0634,159.2344 64.7353,157.5938 Q63.4228,155.9375 63.4228,152.8125 Q63.4228,149.6875 64.7353,148.0313 Q66.0634,146.375 68.5634,146.375 Q69.2665,146.375 69.9072,146.5313 Q70.5634,146.6875 71.1259,146.9844 L71.1259,149.7031 Q70.5009,149.125 69.9072,148.8594 Q69.3134,148.5781 68.6884,148.5781 Q67.3447,148.5781 66.6572,149.6563 Q65.9697,150.7188 65.9697,152.8125 Q65.9697,154.9063 66.6572,155.9844 Q67.3447,157.0469 68.6884,157.0469 Q69.3134,157.0469 69.9072,156.7813 Q70.5009,156.5 71.1259,155.9219 L71.1259,158.6406 Z " fill="#000000"/><text fill="#000000" font-family="sans-serif" font-size="14" lengthAdjust="spacing" textLength="102.3956" x="83.8588" y="158.432">ArrayUtilsClient</text><line style="stroke:#181818;stroke-width:0.5;" x1="46.5" x2="195.9115" y1="169" y2="169"/><rect fill="none" height="6" style="stroke:#C82930;stroke-width:1;" width="6" x="53.5" y="181.034"/><text fill="#000000" font-family="sans-serif" font-size="14" lengthAdjust="spacing" text-decoration="underline" textLength="52.9338" x="65.5" y="187.9659">SIZE: int</text><line style="stroke:#181818;stroke-width:0.5;" x1="46.5" x2="195.9115" y1="196.0679" y2="196.0679"/><ellipse cx="56.5" cy="211.1019" fill="#84BE84" rx="3" ry="3" style="stroke:#038048;stroke-width:1;"/><text fill="#000000" font-family="sans-serif" font-size="14" lengthAdjust="spacing" text-decoration="underline" textLength="125.4115" x="65.5" y="215.0339">main(String[]): void</text></a></g><!--class MathFunctions--><g class="entity" data-entity="MathFunctions" data-source-line="25" data-uid="ent0006" id="entity_MathFunctions"><a href="MathFunctions.html" target="_top" title="MathFunctions.html" xlink:actuate="onRequest" xlink:href="MathFunctions.html" xlink:show="new" xlink:title="MathFunctions.html" xlink:type="simple"><rect fill="#F1F1F1" height="67.0679" rx="2.5" ry="2.5" style="stroke:#181818;stroke-width:0.5;" width="159.6435" x="215" y="146.5"/><ellipse cx="243.3208" cy="162.5" fill="#ADD1B2" rx="11" ry="11" style="stroke:#181818;stroke-width:1;"/><path d="M246.2896,168.1406 Q245.7115,168.4375 245.0708,168.5781 Q244.4302,168.7344 243.7271,168.7344 Q241.2271,168.7344 239.899,167.0938 Q238.5865,165.4375 238.5865,162.3125 Q238.5865,159.1875 239.899,157.5313 Q241.2271,155.875 243.7271,155.875 Q244.4302,155.875 245.0708,156.0313 Q245.7271,156.1875 246.2896,156.4844 L246.2896,159.2031 Q245.6646,158.625 245.0708,158.3594 Q244.4771,158.0781 243.8521,158.0781 Q242.5083,158.0781 241.8208,159.1563 Q241.1333,160.2188 241.1333,162.3125 Q241.1333,164.4063 241.8208,165.4844 Q242.5083,166.5469 243.8521,166.5469 Q244.4771,166.5469 245.0708,166.2813 Q245.6646,166 246.2896,165.4219 L246.2896,168.1406 Z " fill="#000000"/><text fill="#000000" font-family="sans-serif" font-size="14" lengthAdjust="spacing" textLength="98.0416" x="260.281" y="167.932">MathFunctions</text><line style="stroke:#181818;stroke-width:0.5;" x1="216" x2="373.6435" y1="178.5" y2="178.5"/><line style="stroke:#181818;stroke-width:0.5;" x1="216" x2="373.6435" y1="186.5" y2="186.5"/><ellipse cx="226" cy="201.534" fill="#84BE84" rx="3" ry="3" style="stroke:#038048;stroke-width:1;"/><text fill="#000000" font-family="sans-serif" font-size="14" lengthAdjust="spacing" text-decoration="underline" textLength="133.6435" x="235" y="205.4659">sqrt(double): double</text></a></g><g class="footer" data-source-line="37"><text fill="#888888" font-family="sans-serif" font-size="10" lengthAdjust="spacing" textLength="2.6" x="201.2" y="243.69">&#160;</text><a href="https://github.com/talsma-ict/umldoclet" target="_top" title="https://github.com/talsma-ict/umldoclet" xlink:actuate="onRequest" xlink:href="https://github.com/talsma-ict/umldoclet" xlink:show="new" xlink:title="https://github.com/talsma-ict/umldoclet" xlink:type="simple"><text fill="#888888" font-family="sans-serif" font-size="10" lengthAdjust="spacing" textLength="76.7199" x="164.14" y="257.31">UMLDoclet 2.2.3</text></a></g><!--SRC=[fPFVRzCm4CVVzrSSue5EQzqqOriN8QIg31Zg9BIsBuGyN1qliUROcNqfYgRnj-EafRyqr0Vy4CS- -pxVxya70F0EngQihSno0Z90kNGmlvi0wXGoeOL54Yd80ZFXO26KqPbR7HI05UN6WdbeLznOArnfT2fr1jzmYU1CPRbmxEG4MjJiR_PVw7QoB-fcyvFXIX1qngSxai9WSDaBW_02PgXSWN0xdh5rjksTa8Ni77nk9RdGpgUiT2fiAsjK8lVJP1Nfmb9O9utsTu9rdiOgDvfGQWSbMdADfUyADJLQ1wpXioleZAQJVMt1TQkj2oEhiKhXtZnL6xjlIekPLwomDXM1AmIXnZRal6OdF0h9ro-ALXUyq4TVPf34AYqBoLB9IckoaBdW0fvNXvh15JhdcHRhEKdb88wt2vPJePB4duUTyUm8IV8N-BsG6cqz5MXvtf6QugGBVZgDck_cpiiXxGuf_rnfJhvsRgoaqEInh-mUuPyLlioTALd_IEB4KvT6fl_6Rdrjc8TRHu2zwUsFctrp_oDep_5X1OvvTq-MEgcf5afuqEhd4BMUFZYgbVYuYJuOG_v5xsV-MfV2JgH-71lb7zBRuUlHUTCCIchX-uy_Qk5j13lO5jVVuQrPFtKSvqIbY_hzJ59UBHWtHP_QHkn9JlsgKEcg0mzwCKdMlVLbq-HDe_G6GI-ycWt2A3YF1aCMNW_3zyDmU7aM3A8WY6ygQqhHlpU5IFu0]--></g></svg>